<svg width="1280" height="360" viewBox="0 0 1280 360" fill="none" xmlns="http://www.w3.org/2000/svg">
  <defs>
    <linearGradient id="bg" x1="0" y1="0" x2="1280" y2="360" gradientUnits="userSpaceOnUse">
      <stop stop-color="#07111F"/>
      <stop offset="0.58" stop-color="#091523"/>
      <stop offset="1" stop-color="#15131D"/>
    </linearGradient>
    <radialGradient id="leftGlow" cx="0" cy="0" r="1" gradientUnits="userSpaceOnUse" gradientTransform="translate(180 120) rotate(30) scale(360 220)">
      <stop stop-color="#79E2C0" stop-opacity="0.22"/>
      <stop offset="1" stop-color="#79E2C0" stop-opacity="0"/>
    </radialGradient>
    <radialGradient id="rightGlow" cx="0" cy="0" r="1" gradientUnits="userSpaceOnUse" gradientTransform="translate(1120 90) rotate(145) scale(340 220)">
      <stop stop-color="#FF9E65" stop-opacity="0.18"/>
      <stop offset="1" stop-color="#FF9E65" stop-opacity="0"/>
    </radialGradient>
  </defs>

  <rect width="1280" height="360" rx="28" fill="url(#bg)"/>
  <rect width="1280" height="360" rx="28" fill="url(#leftGlow)"/>
  <rect width="1280" height="360" rx="28" fill="url(#rightGlow)"/>

  <g opacity="0.07">
    <path d="M0 72H1280" stroke="white"/>
    <path d="M0 144H1280" stroke="white"/>
    <path d="M0 216H1280" stroke="white"/>
    <path d="M0 288H1280" stroke="white"/>
    <path d="M116 0V360" stroke="white"/>
    <path d="M232 0V360" stroke="white"/>
    <path d="M348 0V360" stroke="white"/>
    <path d="M464 0V360" stroke="white"/>
    <path d="M580 0V360" stroke="white"/>
    <path d="M696 0V360" stroke="white"/>
    <path d="M812 0V360" stroke="white"/>
    <path d="M928 0V360" stroke="white"/>
    <path d="M1044 0V360" stroke="white"/>
    <path d="M1160 0V360" stroke="white"/>
  </g>

  <rect x="72" y="52" width="184" height="38" rx="19" fill="#0E1E34" stroke="#284661"/>
  <text x="103" y="76" fill="#79E2C0" font-family="Arial, Helvetica, sans-serif" font-size="14" font-weight="700" letter-spacing="1.8">PORTFOLIO BRIEFING</text>

  <text x="72" y="154" fill="#F4F7FB" font-family="Arial, Helvetica, sans-serif" font-size="58" font-weight="800">Cybersecurity Portfolio</text>
  <text x="72" y="194" fill="#A9BBD3" font-family="Arial, Helvetica, sans-serif" font-size="22">Built by Abdul Rauf Yousofzay to present my work, mindset,</text>
  <text x="72" y="224" fill="#A9BBD3" font-family="Arial, Helvetica, sans-serif" font-size="22">and experience across cloud security, cloud controls,</text>
  <text x="72" y="254" fill="#A9BBD3" font-family="Arial, Helvetica, sans-serif" font-size="22">AI and API security, IAM configuration, and remediation.</text>

  <rect x="72" y="266" width="194" height="38" rx="19" fill="#102039" stroke="#294A67"/>
  <rect x="280" y="266" width="204" height="38" rx="19" fill="#102039" stroke="#294A67"/>
  <rect x="498" y="266" width="188" height="38" rx="19" fill="#102039" stroke="#294A67"/>
  <text x="102" y="291" fill="#DDE9F7" font-family="Arial, Helvetica, sans-serif" font-size="16">Cloud Security</text>
  <text x="312" y="291" fill="#DDE9F7" font-family="Arial, Helvetica, sans-serif" font-size="16">Detection &amp; Response</text>
  <text x="533" y="291" fill="#DDE9F7" font-family="Arial, Helvetica, sans-serif" font-size="16">Risk Reduction</text>

  <rect x="928" y="60" width="278" height="74" rx="22" fill="#0D1930" stroke="#254362"/>
  <rect x="928" y="146" width="278" height="74" rx="22" fill="#0D1930" stroke="#254362"/>
  <rect x="928" y="232" width="278" height="74" rx="22" fill="#0D1930" stroke="#254362"/>
  <text x="960" y="106" fill="#FF9E65" font-family="Arial, Helvetica, sans-serif" font-size="34" font-weight="800">4+</text>
  <text x="960" y="128" fill="#A9BBD3" font-family="Arial, Helvetica, sans-serif" font-size="17">Years in cybersecurity</text>
  <text x="960" y="192" fill="#FF9E65" font-family="Arial, Helvetica, sans-serif" font-size="28" font-weight="800">AI / API</text>
  <text x="960" y="214" fill="#A9BBD3" font-family="Arial, Helvetica, sans-serif" font-size="17">security and cloud service review</text>
  <text x="960" y="278" fill="#FF9E65" font-family="Arial, Helvetica, sans-serif" font-size="28" font-weight="800">Enterprise IAM</text>
  <text x="960" y="300" fill="#A9BBD3" font-family="Arial, Helvetica, sans-serif" font-size="17">configuration and access controls</text>
</svg>
