<svg width="1280" height="144" viewBox="0 0 1280 144" fill="none" xmlns="http://www.w3.org/2000/svg">
  <defs>
    <linearGradient id="bg" x1="0" y1="0" x2="1280" y2="144" gradientUnits="userSpaceOnUse">
      <stop stop-color="#07111F"/>
      <stop offset="0.56" stop-color="#0A1524"/>
      <stop offset="1" stop-color="#15141D"/>
    </linearGradient>
  </defs>

  <rect width="1280" height="144" rx="28" fill="url(#bg)"/>

  <g opacity="0.06">
    <path d="M0 72H1280" stroke="white"/>
    <path d="M116 0V144" stroke="white"/>
    <path d="M232 0V144" stroke="white"/>
    <path d="M348 0V144" stroke="white"/>
    <path d="M464 0V144" stroke="white"/>
    <path d="M580 0V144" stroke="white"/>
    <path d="M696 0V144" stroke="white"/>
    <path d="M812 0V144" stroke="white"/>
    <path d="M928 0V144" stroke="white"/>
    <path d="M1044 0V144" stroke="white"/>
    <path d="M1160 0V144" stroke="white"/>
  </g>

  <rect x="56" y="28" width="1168" height="88" rx="26" fill="#0B1628" stroke="#23415E"/>

  <g fill="#13243B" stroke="#32506D">
    <rect x="92" y="48" width="60" height="24" rx="12"/>
    <rect x="162" y="48" width="66" height="24" rx="12"/>
    <rect x="238" y="48" width="58" height="24" rx="12"/>
    <rect x="306" y="48" width="72" height="24" rx="12"/>
    <rect x="388" y="48" width="76" height="24" rx="12"/>
    <rect x="474" y="48" width="104" height="24" rx="12"/>
    <rect x="588" y="48" width="100" height="24" rx="12"/>
    <rect x="698" y="48" width="86" height="24" rx="12"/>
    <rect x="794" y="48" width="94" height="24" rx="12"/>
    <rect x="898" y="48" width="92" height="24" rx="12"/>
    <rect x="1000" y="48" width="98" height="24" rx="12"/>
    <rect x="1108" y="48" width="74" height="24" rx="12"/>
  </g>

  <text x="112" y="64" fill="#DDE9F7" font-family="Arial, Helvetica, sans-serif" font-size="12">AWS</text>
  <text x="181" y="64" fill="#DDE9F7" font-family="Arial, Helvetica, sans-serif" font-size="12">Azure</text>
  <text x="255" y="64" fill="#DDE9F7" font-family="Arial, Helvetica, sans-serif" font-size="12">GCP</text>
  <text x="325" y="64" fill="#DDE9F7" font-family="Arial, Helvetica, sans-serif" font-size="12">Splunk</text>
  <text x="409" y="64" fill="#DDE9F7" font-family="Arial, Helvetica, sans-serif" font-size="12">Tenable</text>
  <text x="496" y="64" fill="#DDE9F7" font-family="Arial, Helvetica, sans-serif" font-size="12">CrowdStrike</text>
  <text x="608" y="64" fill="#DDE9F7" font-family="Arial, Helvetica, sans-serif" font-size="12">Cortex XDR</text>
  <text x="722" y="64" fill="#DDE9F7" font-family="Arial, Helvetica, sans-serif" font-size="12">ExtraHop</text>
  <text x="811" y="64" fill="#DDE9F7" font-family="Arial, Helvetica, sans-serif" font-size="12">ServiceNow</text>
  <text x="919" y="64" fill="#DDE9F7" font-family="Arial, Helvetica, sans-serif" font-size="12">RSA Archer</text>
  <text x="1020" y="64" fill="#DDE9F7" font-family="Arial, Helvetica, sans-serif" font-size="12">Databricks</text>
  <text x="1129" y="64" fill="#DDE9F7" font-family="Arial, Helvetica, sans-serif" font-size="12">XSOAR</text>
</svg>
