<svg width="1280" height="560" viewBox="0 0 1280 560" fill="none" xmlns="http://www.w3.org/2000/svg">
  <defs>
    <linearGradient id="bg" x1="0" y1="0" x2="1280" y2="560" gradientUnits="userSpaceOnUse">
      <stop stop-color="#07111F"/>
      <stop offset="0.56" stop-color="#0A1524"/>
      <stop offset="1" stop-color="#15141D"/>
    </linearGradient>
  </defs>

  <rect width="1280" height="560" rx="28" fill="url(#bg)"/>

  <g opacity="0.06">
    <path d="M0 88H1280" stroke="white"/>
    <path d="M0 176H1280" stroke="white"/>
    <path d="M0 264H1280" stroke="white"/>
    <path d="M0 352H1280" stroke="white"/>
    <path d="M0 440H1280" stroke="white"/>
    <path d="M0 528H1280" stroke="white"/>
    <path d="M106 0V560" stroke="white"/>
    <path d="M212 0V560" stroke="white"/>
    <path d="M318 0V560" stroke="white"/>
    <path d="M424 0V560" stroke="white"/>
    <path d="M530 0V560" stroke="white"/>
    <path d="M636 0V560" stroke="white"/>
    <path d="M742 0V560" stroke="white"/>
    <path d="M848 0V560" stroke="white"/>
    <path d="M954 0V560" stroke="white"/>
    <path d="M1060 0V560" stroke="white"/>
    <path d="M1166 0V560" stroke="white"/>
  </g>

  <rect x="56" y="42" width="206" height="38" rx="19" fill="#0F1E33" stroke="#27445F"/>
  <text x="87" y="66" fill="#79E2C0" font-family="Arial, Helvetica, sans-serif" font-size="14" font-weight="700" letter-spacing="1.6">CREDENTIALS STACK</text>
  <text x="56" y="130" fill="#F4F7FB" font-family="Arial, Helvetica, sans-serif" font-size="38" font-weight="800">Certifications, training, and tools</text>

  <rect x="56" y="176" width="530" height="332" rx="26" fill="#0B1628" stroke="#23415E"/>
  <rect x="638" y="176" width="586" height="332" rx="26" fill="#0B1628" stroke="#23415E"/>

  <text x="92" y="218" fill="#79E2C0" font-family="Arial, Helvetica, sans-serif" font-size="15" font-weight="700" letter-spacing="1.4">CERTIFICATIONS</text>
  <text x="92" y="266" fill="#F4F7FB" font-family="Arial, Helvetica, sans-serif" font-size="19">• Databricks Certified Data Engineer Associate</text>
  <text x="92" y="302" fill="#F4F7FB" font-family="Arial, Helvetica, sans-serif" font-size="19">• Security+</text>
  <text x="92" y="338" fill="#F4F7FB" font-family="Arial, Helvetica, sans-serif" font-size="19">• Network+</text>
  <text x="92" y="374" fill="#F4F7FB" font-family="Arial, Helvetica, sans-serif" font-size="19">• Splunk Core Investigating and Threat Hunting</text>
  <text x="92" y="410" fill="#F4F7FB" font-family="Arial, Helvetica, sans-serif" font-size="19">• CSC - Network Administration</text>
  <text x="92" y="446" fill="#F4F7FB" font-family="Arial, Helvetica, sans-serif" font-size="19">• CSC - Cybersecurity</text>
  <text x="92" y="482" fill="#F4F7FB" font-family="Arial, Helvetica, sans-serif" font-size="19">• CSC - Governance, Risk, and Compliance</text>

  <rect x="674" y="246" width="154" height="72" rx="18" fill="#CC1637" stroke="#E98A9D"/>
  <text x="751" y="290" text-anchor="middle" fill="#FFF7FA" font-family="Arial, Helvetica, sans-serif" font-size="29" font-weight="700">CompTIA</text>

  <rect x="848" y="246" width="340" height="72" rx="18" fill="#5D0D0D" stroke="#8D2A24"/>
  <text x="878" y="274" fill="#FFF6F2" font-family="Arial, Helvetica, sans-serif" font-size="17" font-weight="700">databricks</text>
  <text x="878" y="302" fill="#FFF6F2" font-family="Arial, Helvetica, sans-serif" font-size="31" font-weight="800">DATA+AI</text>

  <rect x="674" y="336" width="514" height="30" rx="15" fill="#11152A" stroke="#32506D"/>
  <text x="702" y="356" fill="#EAF1FF" font-family="Arial, Helvetica, sans-serif" font-size="15">Machine data.</text>
  <text x="848" y="356" fill="#FF4B9A" font-family="Arial, Helvetica, sans-serif" font-size="15" font-weight="700">The MVP</text>
  <text x="943" y="356" fill="#FF8A2B" font-family="Arial, Helvetica, sans-serif" font-size="15" font-weight="700">of the AI era.</text>
</svg>
