<svg width="1280" height="440" viewBox="0 0 1280 440" fill="none" xmlns="http://www.w3.org/2000/svg">
  <defs>
    <linearGradient id="bg" x1="0" y1="0" x2="1280" y2="440" gradientUnits="userSpaceOnUse">
      <stop stop-color="#07111F"/>
      <stop offset="0.56" stop-color="#0A1524"/>
      <stop offset="1" stop-color="#15141D"/>
    </linearGradient>
  </defs>

  <rect width="1280" height="440" rx="28" fill="url(#bg)"/>

  <g opacity="0.06">
    <path d="M0 88H1280" stroke="white"/>
    <path d="M0 176H1280" stroke="white"/>
    <path d="M0 264H1280" stroke="white"/>
    <path d="M0 352H1280" stroke="white"/>
    <path d="M106 0V440" stroke="white"/>
    <path d="M212 0V440" stroke="white"/>
    <path d="M318 0V440" stroke="white"/>
    <path d="M424 0V440" stroke="white"/>
    <path d="M530 0V440" stroke="white"/>
    <path d="M636 0V440" stroke="white"/>
    <path d="M742 0V440" stroke="white"/>
    <path d="M848 0V440" stroke="white"/>
    <path d="M954 0V440" stroke="white"/>
    <path d="M1060 0V440" stroke="white"/>
    <path d="M1166 0V440" stroke="white"/>
  </g>

  <rect x="56" y="42" width="206" height="38" rx="19" fill="#0F1E33" stroke="#27445F"/>
  <text x="87" y="66" fill="#79E2C0" font-family="Arial, Helvetica, sans-serif" font-size="14" font-weight="700" letter-spacing="1.6">CREDENTIALS STACK</text>
  <text x="56" y="130" fill="#F4F7FB" font-family="Arial, Helvetica, sans-serif" font-size="38" font-weight="800">Certifications, training, and tools</text>

  <rect x="56" y="176" width="530" height="210" rx="26" fill="#0B1628" stroke="#23415E"/>
  <rect x="638" y="176" width="586" height="210" rx="26" fill="#0B1628" stroke="#23415E"/>

  <text x="92" y="218" fill="#79E2C0" font-family="Arial, Helvetica, sans-serif" font-size="15" font-weight="700" letter-spacing="1.4">CERTIFICATIONS</text>
  <text x="92" y="266" fill="#F4F7FB" font-family="Arial, Helvetica, sans-serif" font-size="22">• Databricks Certified Data Engineer Associate</text>
  <text x="92" y="304" fill="#F4F7FB" font-family="Arial, Helvetica, sans-serif" font-size="22">• Security+</text>
  <text x="92" y="342" fill="#F4F7FB" font-family="Arial, Helvetica, sans-serif" font-size="22">• Network+</text>
  <text x="92" y="380" fill="#F4F7FB" font-family="Arial, Helvetica, sans-serif" font-size="22">• Splunk Core Investigating and Threat Hunting</text>

  <text x="674" y="218" fill="#79E2C0" font-family="Arial, Helvetica, sans-serif" font-size="15" font-weight="700" letter-spacing="1.4">PLATFORMS</text>
  <g fill="#13243B" stroke="#32506D">
    <rect x="674" y="248" width="90" height="34" rx="17"/>
    <rect x="776" y="248" width="96" height="34" rx="17"/>
    <rect x="884" y="248" width="82" height="34" rx="17"/>
    <rect x="978" y="248" width="108" height="34" rx="17"/>
    <rect x="1098" y="248" width="102" height="34" rx="17"/>
    <rect x="674" y="294" width="112" height="34" rx="17"/>
    <rect x="798" y="294" width="118" height="34" rx="17"/>
    <rect x="928" y="294" width="110" height="34" rx="17"/>
    <rect x="1050" y="294" width="126" height="34" rx="17"/>
    <rect x="674" y="340" width="124" height="34" rx="17"/>
    <rect x="810" y="340" width="126" height="34" rx="17"/>
  </g>
  <text x="705" y="270" fill="#DDE9F7" font-family="Arial, Helvetica, sans-serif" font-size="15">AWS</text>
  <text x="810" y="270" fill="#DDE9F7" font-family="Arial, Helvetica, sans-serif" font-size="15">Azure</text>
  <text x="915" y="270" fill="#DDE9F7" font-family="Arial, Helvetica, sans-serif" font-size="15">GCP</text>
  <text x="1004" y="270" fill="#DDE9F7" font-family="Arial, Helvetica, sans-serif" font-size="15">Splunk</text>
  <text x="1120" y="270" fill="#DDE9F7" font-family="Arial, Helvetica, sans-serif" font-size="15">Tenable</text>
  <text x="700" y="316" fill="#DDE9F7" font-family="Arial, Helvetica, sans-serif" font-size="15">CrowdStrike</text>
  <text x="820" y="316" fill="#DDE9F7" font-family="Arial, Helvetica, sans-serif" font-size="15">Cortex XDR</text>
  <text x="955" y="316" fill="#DDE9F7" font-family="Arial, Helvetica, sans-serif" font-size="15">ExtraHop</text>
  <text x="1080" y="316" fill="#DDE9F7" font-family="Arial, Helvetica, sans-serif" font-size="15">ServiceNow</text>
  <text x="704" y="362" fill="#DDE9F7" font-family="Arial, Helvetica, sans-serif" font-size="15">RSA Archer</text>
  <text x="836" y="362" fill="#DDE9F7" font-family="Arial, Helvetica, sans-serif" font-size="15">Databricks</text>
</svg>
