<svg width="1280" height="920" viewBox="0 0 1280 920" fill="none" xmlns="http://www.w3.org/2000/svg">
  <defs>
    <linearGradient id="bg" x1="0" y1="0" x2="1280" y2="920" gradientUnits="userSpaceOnUse">
      <stop stop-color="#08111F"/>
      <stop offset="0.58" stop-color="#0B1523"/>
      <stop offset="1" stop-color="#14141D"/>
    </linearGradient>
  </defs>

  <rect width="1280" height="920" rx="28" fill="url(#bg)"/>

  <g opacity="0.06">
    <path d="M0 92H1280" stroke="white"/>
    <path d="M0 184H1280" stroke="white"/>
    <path d="M0 276H1280" stroke="white"/>
    <path d="M0 368H1280" stroke="white"/>
    <path d="M0 460H1280" stroke="white"/>
    <path d="M0 552H1280" stroke="white"/>
    <path d="M0 644H1280" stroke="white"/>
    <path d="M0 736H1280" stroke="white"/>
    <path d="M0 828H1280" stroke="white"/>
    <path d="M116 0V920" stroke="white"/>
    <path d="M232 0V920" stroke="white"/>
    <path d="M348 0V920" stroke="white"/>
    <path d="M464 0V920" stroke="white"/>
    <path d="M580 0V920" stroke="white"/>
    <path d="M696 0V920" stroke="white"/>
    <path d="M812 0V920" stroke="white"/>
    <path d="M928 0V920" stroke="white"/>
    <path d="M1044 0V920" stroke="white"/>
    <path d="M1160 0V920" stroke="white"/>
  </g>

  <text x="56" y="62" fill="#79E2C0" font-family="Arial, Helvetica, sans-serif" font-size="18" font-weight="700" letter-spacing="1.8">EDUCATION</text>
  <text x="56" y="132" fill="#F4F7FB" font-family="Arial, Helvetica, sans-serif" font-size="54" font-weight="800">Academic foundation in</text>
  <text x="56" y="194" fill="#F4F7FB" font-family="Arial, Helvetica, sans-serif" font-size="54" font-weight="800">cybersecurity engineering</text>
  <text x="56" y="256" fill="#F4F7FB" font-family="Arial, Helvetica, sans-serif" font-size="54" font-weight="800">and operations</text>

  <rect x="56" y="338" width="360" height="470" rx="28" fill="#0D1A2D" stroke="#243E5A" stroke-width="2"/>
  <rect x="460" y="338" width="360" height="470" rx="28" fill="#0D1A2D" stroke="#243E5A" stroke-width="2"/>
  <rect x="864" y="338" width="360" height="470" rx="28" fill="#0D1A2D" stroke="#243E5A" stroke-width="2"/>

  <text x="92" y="408" fill="#F4F7FB" font-family="Arial, Helvetica, sans-serif" font-size="28" font-weight="800">M.S. in Cybersecurity</text>
  <text x="92" y="444" fill="#F4F7FB" font-family="Arial, Helvetica, sans-serif" font-size="28" font-weight="800">Engineering</text>
  <text x="92" y="500" fill="#A9BBD3" font-family="Arial, Helvetica, sans-serif" font-size="20">George Mason</text>
  <text x="92" y="528" fill="#A9BBD3" font-family="Arial, Helvetica, sans-serif" font-size="20">University</text>
  <text x="92" y="580" fill="#A9BBD3" font-family="Arial, Helvetica, sans-serif" font-size="19">Aug 2025 - Present</text>
  <text x="92" y="622" fill="#A9BBD3" font-family="Arial, Helvetica, sans-serif" font-size="19">Coursework: Secure Systems Design,</text>
  <text x="92" y="652" fill="#A9BBD3" font-family="Arial, Helvetica, sans-serif" font-size="19">Threat Modeling, Cloud Security,</text>
  <text x="92" y="682" fill="#A9BBD3" font-family="Arial, Helvetica, sans-serif" font-size="19">Homeland Security Policy, and</text>
  <text x="92" y="712" fill="#A9BBD3" font-family="Arial, Helvetica, sans-serif" font-size="19">Vulnerability Assessment.</text>

  <text x="496" y="408" fill="#F4F7FB" font-family="Arial, Helvetica, sans-serif" font-size="28" font-weight="800">B.A.S. in Cybersecurity</text>
  <text x="496" y="500" fill="#A9BBD3" font-family="Arial, Helvetica, sans-serif" font-size="20">George Mason</text>
  <text x="496" y="528" fill="#A9BBD3" font-family="Arial, Helvetica, sans-serif" font-size="20">University</text>
  <text x="496" y="580" fill="#A9BBD3" font-family="Arial, Helvetica, sans-serif" font-size="19">Jan 2023 - Aug 2024</text>
  <text x="496" y="616" fill="#A9BBD3" font-family="Arial, Helvetica, sans-serif" font-size="19">GPA: 3.5</text>
  <text x="496" y="658" fill="#A9BBD3" font-family="Arial, Helvetica, sans-serif" font-size="19">Activities: GMU Cybersecurity</text>
  <text x="496" y="688" fill="#A9BBD3" font-family="Arial, Helvetica, sans-serif" font-size="19">Association, CCDC, and NSLS.</text>

  <text x="900" y="408" fill="#F4F7FB" font-family="Arial, Helvetica, sans-serif" font-size="28" font-weight="800">A.A.S. in Cybersecurity</text>
  <text x="900" y="498" fill="#A9BBD3" font-family="Arial, Helvetica, sans-serif" font-size="18">Northern Virginia</text>
  <text x="900" y="524" fill="#A9BBD3" font-family="Arial, Helvetica, sans-serif" font-size="18">Community</text>
  <text x="900" y="550" fill="#A9BBD3" font-family="Arial, Helvetica, sans-serif" font-size="18">College</text>
  <text x="900" y="594" fill="#A9BBD3" font-family="Arial, Helvetica, sans-serif" font-size="19">Jan 2021 - Dec 2022</text>
  <text x="900" y="630" fill="#A9BBD3" font-family="Arial, Helvetica, sans-serif" font-size="19">GPA: 3.7, Magna Cum Laude</text>
  <text x="900" y="672" fill="#A9BBD3" font-family="Arial, Helvetica, sans-serif" font-size="17">Coursework: Digital Forensics,</text>
  <text x="900" y="698" fill="#A9BBD3" font-family="Arial, Helvetica, sans-serif" font-size="17">Cryptography, Active Directory, IAM,</text>
  <text x="900" y="724" fill="#A9BBD3" font-family="Arial, Helvetica, sans-serif" font-size="17">EDR, PowerShell, Python, Kali Linux,</text>
  <text x="900" y="750" fill="#A9BBD3" font-family="Arial, Helvetica, sans-serif" font-size="17">Wireshark, Nessus, and OpenVAS.</text>
</svg>
