<svg width="1280" height="440" viewBox="0 0 1280 440" fill="none" xmlns="http://www.w3.org/2000/svg">
  <defs>
    <linearGradient id="bg" x1="0" y1="0" x2="1280" y2="440" gradientUnits="userSpaceOnUse">
      <stop stop-color="#07111F"/>
      <stop offset="0.56" stop-color="#0A1524"/>
      <stop offset="1" stop-color="#15141D"/>
    </linearGradient>
  </defs>

  <rect width="1280" height="440" rx="28" fill="url(#bg)"/>

  <g opacity="0.06">
    <path d="M0 88H1280" stroke="white"/>
    <path d="M0 176H1280" stroke="white"/>
    <path d="M0 264H1280" stroke="white"/>
    <path d="M0 352H1280" stroke="white"/>
    <path d="M106 0V440" stroke="white"/>
    <path d="M212 0V440" stroke="white"/>
    <path d="M318 0V440" stroke="white"/>
    <path d="M424 0V440" stroke="white"/>
    <path d="M530 0V440" stroke="white"/>
    <path d="M636 0V440" stroke="white"/>
    <path d="M742 0V440" stroke="white"/>
    <path d="M848 0V440" stroke="white"/>
    <path d="M954 0V440" stroke="white"/>
    <path d="M1060 0V440" stroke="white"/>
    <path d="M1166 0V440" stroke="white"/>
  </g>

  <rect x="56" y="42" width="206" height="38" rx="19" fill="#0F1E33" stroke="#27445F"/>
  <text x="87" y="66" fill="#79E2C0" font-family="Arial, Helvetica, sans-serif" font-size="14" font-weight="700" letter-spacing="1.6">CREDENTIALS STACK</text>
  <text x="56" y="130" fill="#F4F7FB" font-family="Arial, Helvetica, sans-serif" font-size="38" font-weight="800">Certifications, training, and tools</text>

  <rect x="56" y="176" width="530" height="210" rx="26" fill="#0B1628" stroke="#23415E"/>
  <rect x="638" y="176" width="586" height="210" rx="26" fill="#0B1628" stroke="#23415E"/>

  <text x="92" y="218" fill="#79E2C0" font-family="Arial, Helvetica, sans-serif" font-size="15" font-weight="700" letter-spacing="1.4">CERTIFICATIONS</text>
  <text x="92" y="266" fill="#F4F7FB" font-family="Arial, Helvetica, sans-serif" font-size="22">• Databricks Certified Data Engineer Associate</text>
  <text x="92" y="304" fill="#F4F7FB" font-family="Arial, Helvetica, sans-serif" font-size="22">• Security+</text>
  <text x="92" y="342" fill="#F4F7FB" font-family="Arial, Helvetica, sans-serif" font-size="22">• Network+</text>
  <text x="92" y="380" fill="#F4F7FB" font-family="Arial, Helvetica, sans-serif" font-size="22">• Splunk Core Investigating and Threat Hunting</text>

  <text x="674" y="218" fill="#79E2C0" font-family="Arial, Helvetica, sans-serif" font-size="15" font-weight="700" letter-spacing="1.4">CERTIFICATION BRANDS</text>

  <rect x="674" y="242" width="154" height="84" rx="18" fill="#CC1637" stroke="#E98A9D"/>
  <text x="751" y="293" text-anchor="middle" fill="#FFF7FA" font-family="Arial, Helvetica, sans-serif" font-size="30" font-weight="700">CompTIA</text>

  <rect x="848" y="242" width="340" height="84" rx="18" fill="#5D0D0D" stroke="#8D2A24"/>
  <text x="878" y="274" fill="#FFF6F2" font-family="Arial, Helvetica, sans-serif" font-size="18" font-weight="700">databricks</text>
  <text x="878" y="307" fill="#FFF6F2" font-family="Arial, Helvetica, sans-serif" font-size="34" font-weight="800">DATA+AI</text>

  <rect x="674" y="338" width="514" height="36" rx="18" fill="#11152A" stroke="#32506D"/>
  <text x="704" y="362" fill="#EAF1FF" font-family="Arial, Helvetica, sans-serif" font-size="16">Machine data.</text>
  <text x="852" y="362" fill="#FF4B9A" font-family="Arial, Helvetica, sans-serif" font-size="16" font-weight="700">The MVP</text>
  <text x="948" y="362" fill="#FF8A2B" font-family="Arial, Helvetica, sans-serif" font-size="16" font-weight="700">of the AI era.</text>
</svg>
