<svg width="1280" height="560" viewBox="0 0 1280 560" fill="none" xmlns="http://www.w3.org/2000/svg">
  <defs>
    <linearGradient id="bg" x1="0" y1="0" x2="1280" y2="560" gradientUnits="userSpaceOnUse">
      <stop stop-color="#08111F"/>
      <stop offset="0.55" stop-color="#0B1422"/>
      <stop offset="1" stop-color="#15141D"/>
    </linearGradient>
    <radialGradient id="glow" cx="0" cy="0" r="1" gradientUnits="userSpaceOnUse" gradientTransform="translate(210 90) rotate(28) scale(340 180)">
      <stop stop-color="#79E2C0" stop-opacity="0.16"/>
      <stop offset="1" stop-color="#79E2C0" stop-opacity="0"/>
    </radialGradient>
  </defs>

  <rect width="1280" height="560" rx="28" fill="url(#bg)"/>
  <rect width="1280" height="560" rx="28" fill="url(#glow)"/>

  <g opacity="0.07">
    <path d="M0 80H1280" stroke="white"/>
    <path d="M0 160H1280" stroke="white"/>
    <path d="M0 240H1280" stroke="white"/>
    <path d="M0 320H1280" stroke="white"/>
    <path d="M0 400H1280" stroke="white"/>
    <path d="M0 480H1280" stroke="white"/>
    <path d="M96 0V560" stroke="white"/>
    <path d="M192 0V560" stroke="white"/>
    <path d="M288 0V560" stroke="white"/>
    <path d="M384 0V560" stroke="white"/>
    <path d="M480 0V560" stroke="white"/>
    <path d="M576 0V560" stroke="white"/>
    <path d="M672 0V560" stroke="white"/>
    <path d="M768 0V560" stroke="white"/>
    <path d="M864 0V560" stroke="white"/>
    <path d="M960 0V560" stroke="white"/>
    <path d="M1056 0V560" stroke="white"/>
    <path d="M1152 0V560" stroke="white"/>
  </g>

  <rect x="56" y="42" width="220" height="38" rx="19" fill="#0F1E33" stroke="#26435E"/>
  <text x="87" y="66" fill="#79E2C0" font-family="Arial, Helvetica, sans-serif" font-size="14" font-weight="700" letter-spacing="1.7">SECURITY DASHBOARD</text>

  <text x="56" y="126" fill="#F4F7FB" font-family="Arial, Helvetica, sans-serif" font-size="42" font-weight="800">Portfolio Focus Map</text>
  <text x="56" y="160" fill="#A9BBD3" font-family="Arial, Helvetica, sans-serif" font-size="20">A visual snapshot of the security workstreams, platforms, and operator mindset behind this portfolio.</text>

  <rect x="56" y="198" width="620" height="306" rx="28" fill="#0B1628" stroke="#23415E"/>
  <rect x="706" y="198" width="518" height="146" rx="28" fill="#0B1628" stroke="#23415E"/>
  <rect x="706" y="358" width="518" height="146" rx="28" fill="#0B1628" stroke="#23415E"/>

  <text x="94" y="238" fill="#79E2C0" font-family="Arial, Helvetica, sans-serif" font-size="15" font-weight="700" letter-spacing="1.4">WORKSTREAMS</text>
  <text x="742" y="238" fill="#79E2C0" font-family="Arial, Helvetica, sans-serif" font-size="15" font-weight="700" letter-spacing="1.4">ENVIRONMENTS</text>
  <text x="742" y="398" fill="#79E2C0" font-family="Arial, Helvetica, sans-serif" font-size="15" font-weight="700" letter-spacing="1.4">TOOLS AND PLATFORMS</text>

  <circle cx="366" cy="354" r="70" fill="#102039" stroke="#33506B" stroke-width="2"/>
  <text x="303" y="346" fill="#F4F7FB" font-family="Arial, Helvetica, sans-serif" font-size="24" font-weight="800">Portfolio</text>
  <text x="319" y="375" fill="#A9BBD3" font-family="Arial, Helvetica, sans-serif" font-size="17">Security work</text>

  <rect x="120" y="258" width="154" height="50" rx="25" fill="#102039" stroke="#2E4B66"/>
  <rect x="126" y="400" width="154" height="50" rx="25" fill="#102039" stroke="#2E4B66"/>
  <rect x="452" y="258" width="154" height="50" rx="25" fill="#102039" stroke="#2E4B66"/>
  <rect x="458" y="400" width="154" height="50" rx="25" fill="#102039" stroke="#2E4B66"/>
  <rect x="290" y="446" width="154" height="50" rx="25" fill="#102039" stroke="#2E4B66"/>

  <line x1="273" y1="304" x2="319" y2="327" stroke="#4A6883" stroke-width="2"/>
  <line x1="281" y1="425" x2="315" y2="396" stroke="#4A6883" stroke-width="2"/>
  <line x1="512" y1="304" x2="412" y2="328" stroke="#4A6883" stroke-width="2"/>
  <line x1="509" y1="401" x2="413" y2="383" stroke="#4A6883" stroke-width="2"/>
  <line x1="366" y1="424" x2="366" y2="445" stroke="#4A6883" stroke-width="2"/>

  <text x="154" y="289" fill="#DDE9F7" font-family="Arial, Helvetica, sans-serif" font-size="18">Cloud</text>
  <text x="152" y="431" fill="#DDE9F7" font-family="Arial, Helvetica, sans-serif" font-size="18">Detect</text>
  <text x="484" y="289" fill="#DDE9F7" font-family="Arial, Helvetica, sans-serif" font-size="18">Respond</text>
  <text x="500" y="431" fill="#DDE9F7" font-family="Arial, Helvetica, sans-serif" font-size="18">Harden</text>
  <text x="322" y="477" fill="#DDE9F7" font-family="Arial, Helvetica, sans-serif" font-size="18">Remediate</text>

  <g fill="#14253C" stroke="#32506D">
    <rect x="742" y="266" width="96" height="38" rx="19"/>
    <rect x="852" y="266" width="104" height="38" rx="19"/>
    <rect x="970" y="266" width="86" height="38" rx="19"/>
    <rect x="742" y="316" width="132" height="38" rx="19"/>
    <rect x="888" y="316" width="134" height="38" rx="19"/>
    <rect x="1036" y="316" width="142" height="38" rx="19"/>
  </g>
  <text x="775" y="291" fill="#F4F7FB" font-family="Arial, Helvetica, sans-serif" font-size="16">AWS</text>
  <text x="883" y="291" fill="#F4F7FB" font-family="Arial, Helvetica, sans-serif" font-size="16">Azure</text>
  <text x="996" y="291" fill="#F4F7FB" font-family="Arial, Helvetica, sans-serif" font-size="16">GCP</text>
  <text x="774" y="341" fill="#F4F7FB" font-family="Arial, Helvetica, sans-serif" font-size="16">Finance</text>
  <text x="915" y="341" fill="#F4F7FB" font-family="Arial, Helvetica, sans-serif" font-size="16">Government</text>
  <text x="1068" y="341" fill="#F4F7FB" font-family="Arial, Helvetica, sans-serif" font-size="16">Infrastructure</text>

  <g fill="#14253C" stroke="#32506D">
    <rect x="742" y="426" width="100" height="34" rx="17"/>
    <rect x="852" y="426" width="132" height="34" rx="17"/>
    <rect x="996" y="426" width="116" height="34" rx="17"/>
    <rect x="742" y="470" width="104" height="34" rx="17"/>
    <rect x="858" y="470" width="120" height="34" rx="17"/>
    <rect x="990" y="470" width="124" height="34" rx="17"/>
  </g>
  <text x="767" y="448" fill="#DDE9F7" font-family="Arial, Helvetica, sans-serif" font-size="15">Splunk</text>
  <text x="878" y="448" fill="#DDE9F7" font-family="Arial, Helvetica, sans-serif" font-size="15">CrowdStrike</text>
  <text x="1031" y="448" fill="#DDE9F7" font-family="Arial, Helvetica, sans-serif" font-size="15">Tenable</text>
  <text x="770" y="492" fill="#DDE9F7" font-family="Arial, Helvetica, sans-serif" font-size="15">XSOAR</text>
  <text x="887" y="492" fill="#DDE9F7" font-family="Arial, Helvetica, sans-serif" font-size="15">ServiceNow</text>
  <text x="1020" y="492" fill="#DDE9F7" font-family="Arial, Helvetica, sans-serif" font-size="15">Databricks</text>
</svg>
