<svg width="1280" height="500" viewBox="0 0 1280 500" fill="none" xmlns="http://www.w3.org/2000/svg">
  <defs>
    <linearGradient id="bg" x1="0" y1="0" x2="1280" y2="500" gradientUnits="userSpaceOnUse">
      <stop stop-color="#08111F"/>
      <stop offset="0.6" stop-color="#0B1523"/>
      <stop offset="1" stop-color="#15141D"/>
    </linearGradient>
  </defs>

  <rect width="1280" height="500" rx="28" fill="url(#bg)"/>

  <g opacity="0.06">
    <path d="M0 100H1280" stroke="white"/>
    <path d="M0 200H1280" stroke="white"/>
    <path d="M0 300H1280" stroke="white"/>
    <path d="M0 400H1280" stroke="white"/>
    <path d="M128 0V500" stroke="white"/>
    <path d="M256 0V500" stroke="white"/>
    <path d="M384 0V500" stroke="white"/>
    <path d="M512 0V500" stroke="white"/>
    <path d="M640 0V500" stroke="white"/>
    <path d="M768 0V500" stroke="white"/>
    <path d="M896 0V500" stroke="white"/>
    <path d="M1024 0V500" stroke="white"/>
    <path d="M1152 0V500" stroke="white"/>
  </g>

  <rect x="56" y="44" width="184" height="38" rx="19" fill="#0F1E33" stroke="#27445F"/>
  <text x="87" y="68" fill="#79E2C0" font-family="Arial, Helvetica, sans-serif" font-size="14" font-weight="700" letter-spacing="1.6">MISSION THEMES</text>
  <text x="56" y="130" fill="#F4F7FB" font-family="Arial, Helvetica, sans-serif" font-size="38" font-weight="800">What this portfolio is built around</text>

  <rect x="56" y="174" width="560" height="120" rx="26" fill="#0B1628" stroke="#23415E"/>
  <rect x="664" y="174" width="560" height="120" rx="26" fill="#0B1628" stroke="#23415E"/>
  <rect x="56" y="322" width="560" height="120" rx="26" fill="#0B1628" stroke="#23415E"/>
  <rect x="664" y="322" width="560" height="120" rx="26" fill="#0B1628" stroke="#23415E"/>

  <circle cx="106" cy="224" r="20" fill="#13314A" stroke="#30506D"/>
  <circle cx="714" cy="224" r="20" fill="#13314A" stroke="#30506D"/>
  <circle cx="106" cy="372" r="20" fill="#13314A" stroke="#30506D"/>
  <circle cx="714" cy="372" r="20" fill="#13314A" stroke="#30506D"/>

  <text x="97" y="230" fill="#79E2C0" font-family="Arial, Helvetica, sans-serif" font-size="18" font-weight="800">01</text>
  <text x="705" y="230" fill="#FF9E65" font-family="Arial, Helvetica, sans-serif" font-size="18" font-weight="800">02</text>
  <text x="97" y="378" fill="#79E2C0" font-family="Arial, Helvetica, sans-serif" font-size="18" font-weight="800">03</text>
  <text x="705" y="378" fill="#FF9E65" font-family="Arial, Helvetica, sans-serif" font-size="18" font-weight="800">04</text>

  <text x="142" y="218" fill="#F4F7FB" font-family="Arial, Helvetica, sans-serif" font-size="28" font-weight="800">Cloud Security Reviews</text>
  <text x="142" y="254" fill="#A9BBD3" font-family="Arial, Helvetica, sans-serif" font-size="19">Assessing access paths, permissions, control gaps, and service posture across AWS, Azure, and GCP.</text>

  <text x="750" y="218" fill="#F4F7FB" font-family="Arial, Helvetica, sans-serif" font-size="28" font-weight="800">Threat Detection and Triage</text>
  <text x="750" y="254" fill="#A9BBD3" font-family="Arial, Helvetica, sans-serif" font-size="19">Working through alerts, threat validation, escalation, and operational tuning in real environments.</text>

  <text x="142" y="366" fill="#F4F7FB" font-family="Arial, Helvetica, sans-serif" font-size="28" font-weight="800">Vulnerability Remediation</text>
  <text x="142" y="402" fill="#A9BBD3" font-family="Arial, Helvetica, sans-serif" font-size="19">Prioritizing fixes, reducing exposure, and turning findings into practical remediation steps.</text>

  <text x="750" y="366" fill="#F4F7FB" font-family="Arial, Helvetica, sans-serif" font-size="28" font-weight="800">Governance and Hardening</text>
  <text x="750" y="402" fill="#A9BBD3" font-family="Arial, Helvetica, sans-serif" font-size="19">Improving logging, monitoring, IAM, and control alignment so security improvements actually hold.</text>
</svg>
